<?xml version="1.0" encoding="UTF-8" standalone="no"?>
<!-- Created with Inkscape (http://www.inkscape.org/) -->
<svg
   xmlns:svg="http://www.w3.org/2000/svg"
   xmlns="http://www.w3.org/2000/svg"
   version="1.0"
   width="500"
   height="500"
   id="svg2">
  <defs
     id="defs4" />
  <g
     transform="translate(20,20)"
     style="opacity:1;color:#000000;fill:#ffffff;fill-opacity:1;fill-rule:nonzero;stroke:none;stroke-width:1px;stroke-linecap:butt;stroke-linejoin:miter;marker:none;marker-start:none;marker-mid:none;marker-end:none;stroke-miterlimit:4;stroke-dasharray:none;stroke-dashoffset:0;stroke-opacity:1;visibility:visible;display:inline;overflow:visible;enable-background:accumulate"
     id="g5184">
    <path
       d="M 321.55762,313.58665 L 321.55762,334.97337 L 287.57324,334.97337 L 284.64355,379.50461 C 284.05751,387.21952 283.76454,393.90896 283.76465,399.57297 C 283.76454,413.14723 285.32704,421.448 288.45215,424.47532 C 291.67469,427.40502 295.53211,428.86987 300.02441,428.86985 C 309.39928,428.86987 314.96568,422.96167 316.72363,411.14524 L 321.99707,411.14524 C 318.77427,438.29369 307.93444,451.86789 289.47754,451.86789 C 280.88368,451.86789 273.9501,449.23117 268.67676,443.95774 C 263.50089,438.68431 260.913,430.87182 260.91309,420.52024 C 260.913,413.68434 261.93839,399.23122 263.98926,377.16086 L 267.94434,334.97337 L 236.88965,334.97337 C 234.83881,370.52032 232.34858,396.49685 229.41895,412.90305 C 226.58686,429.30932 223.41304,439.90501 219.89746,444.69016 C 216.47945,449.47532 211.79196,451.86789 205.83496,451.86789 C 201.34275,451.86789 197.53416,450.54953 194.40918,447.91282 C 191.38182,445.2761 189.86815,441.80931 189.86816,437.51243 C 189.86815,433.41088 192.50487,427.79565 197.77832,420.66672 C 205.49313,410.3152 211.25485,399.57302 215.06348,388.44016 C 218.87203,377.20976 221.75288,359.38752 223.70605,334.97337 L 213.74512,334.97337 C 205.73728,334.97348 199.58494,336.78012 195.28809,340.39329 C 191.08885,343.90902 187.08495,348.98714 183.27637,355.62766 L 178.00293,355.62766 C 180.83496,345.17855 184.49706,336.58481 188.98926,329.84641 C 193.48143,323.10826 198.07127,318.71373 202.75879,316.66282 C 207.54391,314.61217 215.99117,313.58678 228.10059,313.58665 L 321.55762,313.58665"
       style="font-size:300px;font-style:normal;font-weight:normal;color:#000000;fill:#ffffff;fill-opacity:1;fill-rule:nonzero;stroke:none;stroke-width:1px;stroke-linecap:butt;stroke-linejoin:miter;marker:none;marker-start:none;marker-mid:none;marker-end:none;stroke-miterlimit:4;stroke-dasharray:none;stroke-dashoffset:0;stroke-opacity:1;visibility:visible;display:inline;overflow:visible;enable-background:accumulate;font-family:Times New Roman"
       id="path5186" />
    <path
       d="M 148.64865,249.84275 L 351.35135,249.84275 L 351.35135,274.41277 L 148.64865,274.41277 L 148.64865,249.84275 z "
       style="color:#000000;fill:#ffffff;fill-opacity:1;fill-rule:nonzero;stroke:none;stroke-width:1px;stroke-linecap:butt;stroke-linejoin:miter;marker:none;marker-start:none;marker-mid:none;marker-end:none;stroke-miterlimit:4;stroke-dasharray:none;stroke-dashoffset:0;stroke-opacity:1;visibility:visible;display:inline;overflow:visible;enable-background:accumulate"
       id="path5188" />
    <path
       d="M 210.88867,46.893829 L 259.22852,23.309845 L 264.0625,23.309845 L 264.0625,191.03445 C 264.06241,202.16729 264.50186,209.10088 265.38086,211.83524 C 266.35733,214.56962 268.31045,216.66923 271.24023,218.13406 C 274.16982,219.59891 280.12685,220.42899 289.11133,220.6243 L 289.11133,226.04422 L 214.4043,226.04422 L 214.4043,220.6243 C 223.77925,220.42899 229.83393,219.64774 232.56836,218.28055 C 235.30267,216.81571 237.20697,214.91142 238.28125,212.56766 C 239.35541,210.12627 239.89251,202.94854 239.89258,191.03445 L 239.89258,83.807892 C 239.89251,69.354924 239.40423,60.077589 238.42773,55.975861 C 237.74408,52.851034 236.47455,50.556114 234.61914,49.091095 C 232.86127,47.62643 230.71284,46.894008 228.17383,46.893829 C 224.5605,46.894008 219.53121,48.407679 213.08594,51.434845 L 210.88867,46.893829"
       style="font-size:300px;font-style:normal;font-weight:normal;color:#000000;fill:#ffffff;fill-opacity:1;fill-rule:nonzero;stroke:none;stroke-width:1px;stroke-linecap:butt;stroke-linejoin:miter;marker:none;marker-start:none;marker-mid:none;marker-end:none;stroke-miterlimit:4;stroke-dasharray:none;stroke-dashoffset:0;stroke-opacity:1;visibility:visible;display:inline;overflow:visible;enable-background:accumulate;font-family:Times New Roman"
       id="path5190" />
  </g>
  <g
     style="opacity:1;color:#000000;fill:#000000;fill-opacity:1;fill-rule:nonzero;stroke:none;stroke-width:1px;stroke-linecap:butt;stroke-linejoin:miter;marker:none;marker-start:none;marker-mid:none;marker-end:none;stroke-miterlimit:4;stroke-dasharray:none;stroke-dashoffset:0;stroke-opacity:1;visibility:visible;display:inline;overflow:visible;enable-background:accumulate"
     id="g5179">
    <path
       d="M 321.55762,313.58665 L 321.55762,334.97337 L 287.57324,334.97337 L 284.64355,379.50461 C 284.05751,387.21952 283.76454,393.90896 283.76465,399.57297 C 283.76454,413.14723 285.32704,421.448 288.45215,424.47532 C 291.67469,427.40502 295.53211,428.86987 300.02441,428.86985 C 309.39928,428.86987 314.96568,422.96167 316.72363,411.14524 L 321.99707,411.14524 C 318.77427,438.29369 307.93444,451.86789 289.47754,451.86789 C 280.88368,451.86789 273.9501,449.23117 268.67676,443.95774 C 263.50089,438.68431 260.913,430.87182 260.91309,420.52024 C 260.913,413.68434 261.93839,399.23122 263.98926,377.16086 L 267.94434,334.97337 L 236.88965,334.97337 C 234.83881,370.52032 232.34858,396.49685 229.41895,412.90305 C 226.58686,429.30932 223.41304,439.90501 219.89746,444.69016 C 216.47945,449.47532 211.79196,451.86789 205.83496,451.86789 C 201.34275,451.86789 197.53416,450.54953 194.40918,447.91282 C 191.38182,445.2761 189.86815,441.80931 189.86816,437.51243 C 189.86815,433.41088 192.50487,427.79565 197.77832,420.66672 C 205.49313,410.3152 211.25485,399.57302 215.06348,388.44016 C 218.87203,377.20976 221.75288,359.38752 223.70605,334.97337 L 213.74512,334.97337 C 205.73728,334.97348 199.58494,336.78012 195.28809,340.39329 C 191.08885,343.90902 187.08495,348.98714 183.27637,355.62766 L 178.00293,355.62766 C 180.83496,345.17855 184.49706,336.58481 188.98926,329.84641 C 193.48143,323.10826 198.07127,318.71373 202.75879,316.66282 C 207.54391,314.61217 215.99117,313.58678 228.10059,313.58665 L 321.55762,313.58665"
       style="font-size:300px;font-style:normal;font-weight:normal;color:#000000;fill:#000000;fill-opacity:1;fill-rule:nonzero;stroke:none;stroke-width:1px;stroke-linecap:butt;stroke-linejoin:miter;marker:none;marker-start:none;marker-mid:none;marker-end:none;stroke-miterlimit:4;stroke-dasharray:none;stroke-dashoffset:0;stroke-opacity:1;visibility:visible;display:inline;overflow:visible;enable-background:accumulate;font-family:Times New Roman"
       id="text2159" />
    <path
       d="M 148.64865,249.84275 L 351.35135,249.84275 L 351.35135,274.41277 L 148.64865,274.41277 L 148.64865,249.84275 z "
       style="color:#000000;fill:#000000;fill-opacity:1;fill-rule:nonzero;stroke:none;stroke-width:1px;stroke-linecap:butt;stroke-linejoin:miter;marker:none;marker-start:none;marker-mid:none;marker-end:none;stroke-miterlimit:4;stroke-dasharray:none;stroke-dashoffset:0;stroke-opacity:1;visibility:visible;display:inline;overflow:visible;enable-background:accumulate"
       id="rect2169" />
    <path
       d="M 210.88867,46.893829 L 259.22852,23.309845 L 264.0625,23.309845 L 264.0625,191.03445 C 264.06241,202.16729 264.50186,209.10088 265.38086,211.83524 C 266.35733,214.56962 268.31045,216.66923 271.24023,218.13406 C 274.16982,219.59891 280.12685,220.42899 289.11133,220.6243 L 289.11133,226.04422 L 214.4043,226.04422 L 214.4043,220.6243 C 223.77925,220.42899 229.83393,219.64774 232.56836,218.28055 C 235.30267,216.81571 237.20697,214.91142 238.28125,212.56766 C 239.35541,210.12627 239.89251,202.94854 239.89258,191.03445 L 239.89258,83.807892 C 239.89251,69.354924 239.40423,60.077589 238.42773,55.975861 C 237.74408,52.851034 236.47455,50.556114 234.61914,49.091095 C 232.86127,47.62643 230.71284,46.894008 228.17383,46.893829 C 224.5605,46.894008 219.53121,48.407679 213.08594,51.434845 L 210.88867,46.893829"
       style="font-size:300px;font-style:normal;font-weight:normal;color:#000000;fill:#000000;fill-opacity:1;fill-rule:nonzero;stroke:none;stroke-width:1px;stroke-linecap:butt;stroke-linejoin:miter;marker:none;marker-start:none;marker-mid:none;marker-end:none;stroke-miterlimit:4;stroke-dasharray:none;stroke-dashoffset:0;stroke-opacity:1;visibility:visible;display:inline;overflow:visible;enable-background:accumulate;font-family:Times New Roman"
       id="text5172" />
  </g>
</svg>
