<?xml version="1.0" encoding="UTF-8" standalone="no"?>
<!-- Created with Inkscape (http://www.inkscape.org/) -->
<svg
   xmlns:svg="http://www.w3.org/2000/svg"
   xmlns="http://www.w3.org/2000/svg"
   version="1.0"
   width="500"
   height="500"
   id="svg2">
  <defs
     id="defs4" />
  <g
     transform="translate(20,20)"
     style="fill:#ffffff;fill-opacity:1"
     id="g6174">
    <path
       d="M 321.55762,313.58665 L 321.55762,334.97337 L 287.57324,334.97337 L 284.64355,379.50461 C 284.05751,387.21952 283.76454,393.90896 283.76465,399.57297 C 283.76454,413.14723 285.32704,421.448 288.45215,424.47532 C 291.67469,427.40502 295.53211,428.86987 300.02441,428.86985 C 309.39928,428.86987 314.96568,422.96167 316.72363,411.14524 L 321.99707,411.14524 C 318.77427,438.29369 307.93444,451.86789 289.47754,451.86789 C 280.88368,451.86789 273.9501,449.23117 268.67676,443.95774 C 263.50089,438.68431 260.913,430.87182 260.91309,420.52024 C 260.913,413.68434 261.93839,399.23122 263.98926,377.16086 L 267.94434,334.97337 L 236.88965,334.97337 C 234.83881,370.52032 232.34858,396.49685 229.41895,412.90305 C 226.58686,429.30932 223.41304,439.90501 219.89746,444.69016 C 216.47945,449.47532 211.79196,451.86789 205.83496,451.86789 C 201.34275,451.86789 197.53416,450.54953 194.40918,447.91282 C 191.38182,445.2761 189.86815,441.80931 189.86816,437.51243 C 189.86815,433.41088 192.50487,427.79565 197.77832,420.66672 C 205.49313,410.3152 211.25485,399.57302 215.06348,388.44016 C 218.87203,377.20976 221.75288,359.38752 223.70605,334.97337 L 213.74512,334.97337 C 205.73728,334.97348 199.58494,336.78012 195.28809,340.39329 C 191.08885,343.90902 187.08495,348.98714 183.27637,355.62766 L 178.00293,355.62766 C 180.83496,345.17855 184.49706,336.58481 188.98926,329.84641 C 193.48143,323.10826 198.07127,318.71373 202.75879,316.66282 C 207.54391,314.61217 215.99117,313.58678 228.10059,313.58665 L 321.55762,313.58665"
       style="font-size:300px;font-style:normal;font-weight:normal;opacity:1;color:#000000;fill:#ffffff;fill-opacity:1;fill-rule:nonzero;stroke:none;stroke-width:1px;stroke-linecap:butt;stroke-linejoin:miter;marker:none;marker-start:none;marker-mid:none;marker-end:none;stroke-miterlimit:4;stroke-dasharray:none;stroke-dashoffset:0;stroke-opacity:1;visibility:visible;display:inline;overflow:visible;enable-background:accumulate;font-family:Times New Roman"
       id="path6176" />
    <path
       d="M 148.64865,249.84275 L 351.35135,249.84275 L 351.35135,274.41277 L 148.64865,274.41277 L 148.64865,249.84275 z "
       style="opacity:1;color:#000000;fill:#ffffff;fill-opacity:1;fill-rule:nonzero;stroke:none;stroke-width:1px;stroke-linecap:butt;stroke-linejoin:miter;marker:none;marker-start:none;marker-mid:none;marker-end:none;stroke-miterlimit:4;stroke-dasharray:none;stroke-dashoffset:0;stroke-opacity:1;visibility:visible;display:inline;overflow:visible;enable-background:accumulate"
       id="path6178" />
    <path
       d="M 315.55176,185.66929 L 301.63574,223.90171 L 184.44824,223.90171 L 184.44824,218.48179 C 218.92086,187.03652 243.18841,161.35295 257.25098,141.43101 C 271.31339,121.50924 278.34463,103.29637 278.34473,86.792342 C 278.34463,74.194835 274.48721,63.843283 266.77246,55.737654 C 259.05754,47.632362 249.82903,43.579631 239.08692,43.579451 C 229.32124,43.579631 220.53219,46.460488 212.71973,52.222029 C 205.00486,57.886257 199.29197,66.235858 195.58106,77.270857 L 190.16113,77.270857 C 192.60253,59.204615 198.85252,45.337442 208.91113,35.669295 C 219.06734,26.001524 231.71382,21.167544 246.85059,21.167342 C 262.96378,21.167544 276.3915,26.34332 287.13379,36.694685 C 297.97351,47.046425 303.39343,59.253443 303.39356,73.315779 C 303.39343,83.374513 301.04968,93.433097 296.36231,103.49156 C 289.13563,119.31198 277.41689,136.06001 261.20606,153.7357 C 236.88959,180.29824 221.70406,196.31385 215.64942,201.78257 L 267.50488,201.78257 C 278.05166,201.7826 285.4247,201.39197 289.62403,200.6107 C 293.92078,199.82947 297.7782,198.26697 301.19629,195.9232 C 304.61413,193.48182 307.59265,190.06386 310.13184,185.66929 L 315.55176,185.66929"
       style="font-size:300px;font-style:normal;font-weight:normal;fill:#ffffff;fill-opacity:1;stroke:none;stroke-width:1px;stroke-linecap:butt;stroke-linejoin:miter;stroke-opacity:1;font-family:Times New Roman"
       id="path6180" />
  </g>
  <g
     id="g6169">
    <path
       d="M 321.55762,313.58665 L 321.55762,334.97337 L 287.57324,334.97337 L 284.64355,379.50461 C 284.05751,387.21952 283.76454,393.90896 283.76465,399.57297 C 283.76454,413.14723 285.32704,421.448 288.45215,424.47532 C 291.67469,427.40502 295.53211,428.86987 300.02441,428.86985 C 309.39928,428.86987 314.96568,422.96167 316.72363,411.14524 L 321.99707,411.14524 C 318.77427,438.29369 307.93444,451.86789 289.47754,451.86789 C 280.88368,451.86789 273.9501,449.23117 268.67676,443.95774 C 263.50089,438.68431 260.913,430.87182 260.91309,420.52024 C 260.913,413.68434 261.93839,399.23122 263.98926,377.16086 L 267.94434,334.97337 L 236.88965,334.97337 C 234.83881,370.52032 232.34858,396.49685 229.41895,412.90305 C 226.58686,429.30932 223.41304,439.90501 219.89746,444.69016 C 216.47945,449.47532 211.79196,451.86789 205.83496,451.86789 C 201.34275,451.86789 197.53416,450.54953 194.40918,447.91282 C 191.38182,445.2761 189.86815,441.80931 189.86816,437.51243 C 189.86815,433.41088 192.50487,427.79565 197.77832,420.66672 C 205.49313,410.3152 211.25485,399.57302 215.06348,388.44016 C 218.87203,377.20976 221.75288,359.38752 223.70605,334.97337 L 213.74512,334.97337 C 205.73728,334.97348 199.58494,336.78012 195.28809,340.39329 C 191.08885,343.90902 187.08495,348.98714 183.27637,355.62766 L 178.00293,355.62766 C 180.83496,345.17855 184.49706,336.58481 188.98926,329.84641 C 193.48143,323.10826 198.07127,318.71373 202.75879,316.66282 C 207.54391,314.61217 215.99117,313.58678 228.10059,313.58665 L 321.55762,313.58665"
       style="font-size:300px;font-style:normal;font-weight:normal;opacity:1;color:#000000;fill:#000000;fill-opacity:1;fill-rule:nonzero;stroke:none;stroke-width:1px;stroke-linecap:butt;stroke-linejoin:miter;marker:none;marker-start:none;marker-mid:none;marker-end:none;stroke-miterlimit:4;stroke-dasharray:none;stroke-dashoffset:0;stroke-opacity:1;visibility:visible;display:inline;overflow:visible;enable-background:accumulate;font-family:Times New Roman"
       id="text2159" />
    <path
       d="M 148.64865,249.84275 L 351.35135,249.84275 L 351.35135,274.41277 L 148.64865,274.41277 L 148.64865,249.84275 z "
       style="opacity:1;color:#000000;fill:#000000;fill-opacity:1;fill-rule:nonzero;stroke:none;stroke-width:1px;stroke-linecap:butt;stroke-linejoin:miter;marker:none;marker-start:none;marker-mid:none;marker-end:none;stroke-miterlimit:4;stroke-dasharray:none;stroke-dashoffset:0;stroke-opacity:1;visibility:visible;display:inline;overflow:visible;enable-background:accumulate"
       id="rect2169" />
    <path
       d="M 315.55176,185.66929 L 301.63574,223.90171 L 184.44824,223.90171 L 184.44824,218.48179 C 218.92086,187.03652 243.18841,161.35295 257.25098,141.43101 C 271.31339,121.50924 278.34463,103.29637 278.34473,86.792342 C 278.34463,74.194835 274.48721,63.843283 266.77246,55.737654 C 259.05754,47.632362 249.82903,43.579631 239.08692,43.579451 C 229.32124,43.579631 220.53219,46.460488 212.71973,52.222029 C 205.00486,57.886257 199.29197,66.235858 195.58106,77.270857 L 190.16113,77.270857 C 192.60253,59.204615 198.85252,45.337442 208.91113,35.669295 C 219.06734,26.001524 231.71382,21.167544 246.85059,21.167342 C 262.96378,21.167544 276.3915,26.34332 287.13379,36.694685 C 297.97351,47.046425 303.39343,59.253443 303.39356,73.315779 C 303.39343,83.374513 301.04968,93.433097 296.36231,103.49156 C 289.13563,119.31198 277.41689,136.06001 261.20606,153.7357 C 236.88959,180.29824 221.70406,196.31385 215.64942,201.78257 L 267.50488,201.78257 C 278.05166,201.7826 285.4247,201.39197 289.62403,200.6107 C 293.92078,199.82947 297.7782,198.26697 301.19629,195.9232 C 304.61413,193.48182 307.59265,190.06386 310.13184,185.66929 L 315.55176,185.66929"
       style="font-size:300px;font-style:normal;font-weight:normal;fill:#000000;fill-opacity:1;stroke:none;stroke-width:1px;stroke-linecap:butt;stroke-linejoin:miter;stroke-opacity:1;font-family:Times New Roman"
       id="text6164" />
  </g>
</svg>
