<?xml version="1.0" encoding="UTF-8" standalone="no"?>
<!-- Created with Inkscape (http://www.inkscape.org/) -->
<svg
   xmlns:svg="http://www.w3.org/2000/svg"
   xmlns="http://www.w3.org/2000/svg"
   version="1.0"
   width="500"
   height="500"
   id="svg2">
  <defs
     id="defs4" />
  <path
     d="M 132.6521,312.0149 C 131.53367,322.63891 130.97452,332.70363 130.97464,342.20904 C 130.97452,368.48921 135.72729,390.29606 145.23298,407.62965 C 161.72778,438.38296 192.06166,453.75959 236.23473,453.75956 C 268.66519,453.75959 292.84843,448.86703 308.78452,439.08187 C 337.30086,421.46867 354.91409,401.33928 361.62424,378.69361 L 418.23823,378.69361 C 407.05482,414.19972 380.63497,444.39383 338.97863,469.27598 C 309.90252,486.60965 266.56838,495.27648 208.97615,495.27648 C 151.3835,495.27648 107.07087,473.88898 76.038115,431.11395 C 54.231215,401.19948 43.327785,364.57518 43.327815,321.2409 C 43.327785,302.22994 45.424595,281.96075 49.618245,260.43325 C 63.317385,189.701 93.791055,132.80751 141.03936,89.752563 C 188.28739,46.69841 245.46046,25.171147 312.55879,25.170689 C 421.8723,25.171147 476.52919,63.89229 476.52967,141.3342 C 476.52919,198.08827 447.87277,240.30409 390.56027,267.9818 C 332.12872,296.21909 246.1594,310.89679 132.6521,312.0149 M 347.78525,218.07761 C 379.0973,199.62593 394.75352,173.06629 394.75389,138.39866 C 394.75352,90.591693 363.02177,66.688033 299.55852,66.687603 C 262.09517,66.688033 230.36342,80.946343 204.36316,109.46263 C 178.36249,137.97966 157.39437,190.67952 141.45871,267.56245 C 231.20215,263.36903 299.97759,246.8741 347.78525,218.07761"
     style="font-size:300px;font-style:italic;font-weight:normal;fill:#ffffff;fill-opacity:1;stroke:none;stroke-width:1px;stroke-linecap:butt;stroke-linejoin:miter;stroke-opacity:1;font-family:DejaVu Serif"
     id="path2194" />
  <path
     d="M 112.79461,291.56773 C 111.67618,302.19174 111.11703,312.25646 111.11715,321.76187 C 111.11703,348.04204 115.8698,369.84889 125.37549,387.18248 C 141.87029,417.93579 172.20417,433.31242 216.37724,433.31239 C 248.8077,433.31242 272.99094,428.41986 288.92703,418.6347 C 317.44337,401.0215 335.0566,380.89211 341.76675,358.24644 L 398.38074,358.24644 C 387.19733,393.75255 360.77748,423.94666 319.12114,448.82881 C 290.04503,466.16248 246.71089,474.82931 189.11866,474.82931 C 131.52601,474.82931 87.213383,453.44181 56.180626,410.66678 C 34.373721,380.75231 23.470296,344.12801 23.470325,300.79373 C 23.470296,281.78277 25.567105,261.51358 29.760752,239.98608 C 43.459893,169.25383 73.933564,112.36034 121.18187,69.30539 C 168.4299,26.251238 225.60297,4.723975 292.7013,4.723517 C 402.01481,4.723975 456.6717,43.445118 456.67218,120.88703 C 456.6717,177.6411 428.01528,219.85692 370.70278,247.53463 C 312.27123,275.77192 226.30191,290.44962 112.79461,291.56773 M 327.92776,197.63044 C 359.23981,179.17876 374.89603,152.61912 374.8964,117.95149 C 374.89603,70.144521 343.16428,46.240863 279.70103,46.240434 C 242.23768,46.240863 210.50593,60.499176 184.50567,89.01546 C 158.505,117.53249 137.53688,170.23235 121.60122,247.11528 C 211.34466,242.92186 280.1201,226.42693 327.92776,197.63044"
     style="font-size:300px;font-style:italic;font-weight:normal;fill:#000000;fill-opacity:1;stroke:none;stroke-width:1px;stroke-linecap:butt;stroke-linejoin:miter;stroke-opacity:1;font-family:DejaVu Serif"
     id="text2189" />
</svg>
