<?xml version="1.0" encoding="UTF-8" standalone="no"?>
<!-- Created with Inkscape (http://www.inkscape.org/) -->
<svg
   xmlns:svg="http://www.w3.org/2000/svg"
   xmlns="http://www.w3.org/2000/svg"
   version="1.0"
   width="500"
   height="500"
   id="svg2">
  <defs
     id="defs4" />
  <g
     transform="translate(-12.56692,18.868266)"
     id="g3159">
    <path
       d="M 499.13955,43.852043 L 481.28454,105.25586 L 377.2029,105.25586 L 326.25079,278.14461 C 316.96009,310.08051 312.31489,333.74201 312.31518,349.12916 C 312.31489,360.45191 315.79879,369.88748 322.76689,377.43588 C 330.02472,384.69406 339.46028,388.32312 351.07361,388.32308 C 375.75092,388.32312 395.49302,369.16167 410.29999,330.83866 L 427.28402,330.83866 C 407.83184,402.25873 372.84767,437.96871 322.3314,437.96872 C 301.13737,437.96871 284.00819,431.72672 270.94381,419.24273 C 258.16926,406.75876 251.78211,389.04893 251.78234,366.11319 C 251.78211,348.1131 255.99183,322.99998 264.41149,290.77376 L 275.29869,249.4024 C 276.16942,245.33802 277.47588,240.4025 279.21809,234.5958 L 320.15396,105.25586 L 231.74989,105.25586 L 185.58816,264.20899 C 164.39426,337.08075 147.55541,384.25857 135.07154,405.7426 C 122.87778,427.22668 106.76473,437.96871 86.732367,437.96872 C 76.570927,437.96871 67.280524,434.77513 58.861132,428.38798 C 50.44167,422.29116 46.231957,414.01689 46.231978,403.56516 C 46.231957,389.62958 56.828822,370.32297 78.022606,345.64525 C 130.57139,284.09642 169.62012,203.9667 195.16889,105.25586 L 163.37827,105.25586 C 113.44221,105.25618 81.216128,120.6434 66.699917,151.41759 L 50.151371,151.41759 C 76.570927,79.70757 123.02294,43.852427 189.50755,43.852043 L 499.13955,43.852043"
       style="font-size:891.8795166px;font-style:normal;font-weight:normal;fill:#ffffff;fill-opacity:1;stroke:none;stroke-width:1px;stroke-linecap:butt;stroke-linejoin:miter;stroke-opacity:1;font-family:Bitstream Vera Serif"
       id="path2186" />
    <path
       d="M 478.90186,24.294749 L 461.04685,85.698563 L 356.96521,85.698563 L 306.0131,258.58732 C 296.7224,290.52322 292.0772,314.18472 292.07749,329.57187 C 292.0772,340.89462 295.5611,350.33019 302.5292,357.87859 C 309.78703,365.13677 319.22259,368.76583 330.83592,368.76579 C 355.51323,368.76583 375.25533,349.60438 390.0623,311.28137 L 407.04633,311.28137 C 387.59415,382.70144 352.60998,418.41142 302.09371,418.41143 C 280.89968,418.41142 263.7705,412.16943 250.70612,399.68544 C 237.93157,387.20147 231.54442,369.49164 231.54465,346.5559 C 231.54442,328.55581 235.75414,303.44269 244.1738,271.21647 L 255.061,229.84511 C 255.93173,225.78073 257.23819,220.84521 258.9804,215.03851 L 299.91627,85.698563 L 211.5122,85.698563 L 165.35047,244.6517 C 144.15657,317.52346 127.31772,364.70128 114.83385,386.18531 C 102.64009,407.66939 86.527047,418.41142 66.49468,418.41143 C 56.33324,418.41142 47.042837,415.21784 38.623445,408.83069 C 30.203983,402.73387 25.99427,394.4596 25.994291,384.00787 C 25.99427,370.07229 36.591135,350.76568 57.784919,326.08796 C 110.3337,264.53913 149.38243,184.40941 174.9312,85.698563 L 143.14058,85.698563 C 93.204524,85.698886 60.978441,101.08611 46.46223,131.8603 L 29.913684,131.8603 C 56.33324,60.150279 102.78525,24.295133 169.26986,24.294749 L 478.90186,24.294749"
       style="font-size:891.8795166px;font-style:normal;font-weight:normal;fill:#000000;fill-opacity:1;stroke:none;stroke-width:1px;stroke-linecap:butt;stroke-linejoin:miter;stroke-opacity:1;font-family:Bitstream Vera Serif"
       id="text2177" />
  </g>
</svg>
