<?xml version="1.0" encoding="UTF-8" standalone="no"?>
<!-- Created with Inkscape (http://www.inkscape.org/) -->
<svg
   xmlns:svg="http://www.w3.org/2000/svg"
   xmlns="http://www.w3.org/2000/svg"
   version="1.0"
   width="500"
   height="500"
   id="svg2">
  <defs
     id="defs4" />
  <g
     transform="translate(12,12)"
     style="fill:#ffffff;fill-opacity:1"
     id="g3151">
    <path
       d="M 321.55762,40.859375 L 321.55762,62.246094 L 287.57324,62.246094 L 284.64355,106.77734 C 284.05751,114.49225 283.76454,121.18169 283.76465,126.8457 C 283.76454,140.41996 285.32704,148.72073 288.45215,151.74805 C 291.67469,154.67775 295.53211,156.1426 300.02441,156.14258 C 309.39928,156.1426 314.96568,150.2344 316.72363,138.41797 L 321.99707,138.41797 C 318.77427,165.56642 307.93444,179.14062 289.47754,179.14062 C 280.88368,179.14062 273.9501,176.5039 268.67676,171.23047 C 263.50089,165.95704 260.913,158.14455 260.91309,147.79297 C 260.913,140.95707 261.93839,126.50395 263.98926,104.43359 L 267.94434,62.246094 L 236.88965,62.246094 C 234.83881,97.793046 232.34858,123.76958 229.41895,140.17578 C 226.58686,156.58205 223.41304,167.17774 219.89746,171.96289 C 216.47945,176.74805 211.79196,179.14062 205.83496,179.14062 C 201.34275,179.14062 197.53416,177.82226 194.40918,175.18555 C 191.38182,172.54883 189.86815,169.08204 189.86816,164.78516 C 189.86815,160.68361 192.50487,155.06838 197.77832,147.93945 C 205.49313,137.58793 211.25485,126.84575 215.06348,115.71289 C 218.87203,104.48249 221.75288,86.660245 223.70605,62.246094 L 213.74512,62.246094 C 205.73728,62.246207 199.58494,64.052845 195.28809,67.666016 C 191.08885,71.181744 187.08495,76.259864 183.27637,82.900391 L 178.00293,82.900391 C 180.83496,72.451274 184.49706,63.857533 188.98926,57.119141 C 193.48143,50.380984 198.07127,45.986457 202.75879,43.935547 C 207.54391,41.884899 215.99117,40.859509 228.10059,40.859375 L 321.55762,40.859375"
       style="font-size:300px;font-style:normal;font-weight:normal;fill:#ffffff;fill-opacity:1;stroke:none;stroke-width:1px;stroke-linecap:butt;stroke-linejoin:miter;stroke-opacity:1;font-family:Times New Roman"
       id="path3153" />
    <path
       d="M 315.55176,413.13477 L 301.63574,451.36719 L 184.44824,451.36719 L 184.44824,445.94727 C 218.92086,414.50199 243.18841,388.81842 257.25098,368.89648 C 271.31338,348.97471 278.34463,330.76184 278.34473,314.25781 C 278.34463,301.66031 274.48721,291.30875 266.77246,283.20312 C 259.05754,275.09783 249.82903,271.0451 239.08691,271.04492 C 229.32124,271.0451 220.53218,273.92596 212.71973,279.6875 C 205.00486,285.35173 199.29197,293.70133 195.58105,304.73633 L 190.16113,304.73633 C 192.60252,286.67009 198.85252,272.80291 208.91113,263.13477 C 219.06734,253.46699 231.71381,248.63302 246.85059,248.63281 C 262.96378,248.63302 276.3915,253.80879 287.13379,264.16016 C 297.97351,274.5119 303.39343,286.71891 303.39355,300.78125 C 303.39343,310.83998 301.04968,320.89857 296.3623,330.95703 C 289.13563,346.77745 277.41689,363.52548 261.20605,381.20117 C 236.88959,407.76372 221.70406,423.77932 215.64941,429.24805 L 267.50488,429.24805 C 278.05166,429.24807 285.4247,428.85744 289.62402,428.07617 C 293.92078,427.29495 297.7782,425.73245 301.19629,423.38867 C 304.61413,420.9473 307.59264,417.52933 310.13184,413.13477 L 315.55176,413.13477"
       style="font-size:300px;font-style:normal;font-weight:normal;fill:#ffffff;fill-opacity:1;stroke:none;stroke-width:1px;stroke-linecap:butt;stroke-linejoin:miter;stroke-opacity:1;font-family:Times New Roman"
       id="path3155" />
    <path
       d="M 148.64865,203.1597 L 351.35135,203.1597 L 351.35135,227.72972 L 148.64865,227.72972 L 148.64865,203.1597 z "
       style="fill:#ffffff;fill-opacity:1;stroke:none;stroke-width:17.70199966;stroke-miterlimit:4;stroke-dashoffset:0;stroke-opacity:1"
       id="path3157" />
  </g>
  <g
     id="g3146">
    <path
       d="M 321.55762,40.859375 L 321.55762,62.246094 L 287.57324,62.246094 L 284.64355,106.77734 C 284.05751,114.49225 283.76454,121.18169 283.76465,126.8457 C 283.76454,140.41996 285.32704,148.72073 288.45215,151.74805 C 291.67469,154.67775 295.53211,156.1426 300.02441,156.14258 C 309.39928,156.1426 314.96568,150.2344 316.72363,138.41797 L 321.99707,138.41797 C 318.77427,165.56642 307.93444,179.14062 289.47754,179.14062 C 280.88368,179.14062 273.9501,176.5039 268.67676,171.23047 C 263.50089,165.95704 260.913,158.14455 260.91309,147.79297 C 260.913,140.95707 261.93839,126.50395 263.98926,104.43359 L 267.94434,62.246094 L 236.88965,62.246094 C 234.83881,97.793046 232.34858,123.76958 229.41895,140.17578 C 226.58686,156.58205 223.41304,167.17774 219.89746,171.96289 C 216.47945,176.74805 211.79196,179.14062 205.83496,179.14062 C 201.34275,179.14062 197.53416,177.82226 194.40918,175.18555 C 191.38182,172.54883 189.86815,169.08204 189.86816,164.78516 C 189.86815,160.68361 192.50487,155.06838 197.77832,147.93945 C 205.49313,137.58793 211.25485,126.84575 215.06348,115.71289 C 218.87203,104.48249 221.75288,86.660245 223.70605,62.246094 L 213.74512,62.246094 C 205.73728,62.246207 199.58494,64.052845 195.28809,67.666016 C 191.08885,71.181744 187.08495,76.259864 183.27637,82.900391 L 178.00293,82.900391 C 180.83496,72.451274 184.49706,63.857533 188.98926,57.119141 C 193.48143,50.380984 198.07127,45.986457 202.75879,43.935547 C 207.54391,41.884899 215.99117,40.859509 228.10059,40.859375 L 321.55762,40.859375"
       style="font-size:300px;font-style:normal;font-weight:normal;fill:#000000;fill-opacity:1;stroke:none;stroke-width:1px;stroke-linecap:butt;stroke-linejoin:miter;stroke-opacity:1;font-family:Times New Roman"
       id="text2159" />
    <path
       d="M 315.55176,413.13477 L 301.63574,451.36719 L 184.44824,451.36719 L 184.44824,445.94727 C 218.92086,414.50199 243.18841,388.81842 257.25098,368.89648 C 271.31338,348.97471 278.34463,330.76184 278.34473,314.25781 C 278.34463,301.66031 274.48721,291.30875 266.77246,283.20312 C 259.05754,275.09783 249.82903,271.0451 239.08691,271.04492 C 229.32124,271.0451 220.53218,273.92596 212.71973,279.6875 C 205.00486,285.35173 199.29197,293.70133 195.58105,304.73633 L 190.16113,304.73633 C 192.60252,286.67009 198.85252,272.80291 208.91113,263.13477 C 219.06734,253.46699 231.71381,248.63302 246.85059,248.63281 C 262.96378,248.63302 276.3915,253.80879 287.13379,264.16016 C 297.97351,274.5119 303.39343,286.71891 303.39355,300.78125 C 303.39343,310.83998 301.04968,320.89857 296.3623,330.95703 C 289.13563,346.77745 277.41689,363.52548 261.20605,381.20117 C 236.88959,407.76372 221.70406,423.77932 215.64941,429.24805 L 267.50488,429.24805 C 278.05166,429.24807 285.4247,428.85744 289.62402,428.07617 C 293.92078,427.29495 297.7782,425.73245 301.19629,423.38867 C 304.61413,420.9473 307.59264,417.52933 310.13184,413.13477 L 315.55176,413.13477"
       style="font-size:300px;font-style:normal;font-weight:normal;fill:#000000;fill-opacity:1;stroke:none;stroke-width:1px;stroke-linecap:butt;stroke-linejoin:miter;stroke-opacity:1;font-family:Times New Roman"
       id="text2165" />
    <path
       d="M 148.64865,203.1597 L 351.35135,203.1597 L 351.35135,227.72972 L 148.64865,227.72972 L 148.64865,203.1597 z "
       style="fill:#000000;fill-opacity:1;stroke:none;stroke-width:17.70199966;stroke-miterlimit:4;stroke-dashoffset:0;stroke-opacity:1"
       id="rect2169" />
  </g>
</svg>
