<?xml version="1.0" encoding="UTF-8" standalone="no"?>
<!-- Created with Inkscape (http://www.inkscape.org/) -->
<svg
   xmlns:svg="http://www.w3.org/2000/svg"
   xmlns="http://www.w3.org/2000/svg"
   version="1.0"
   width="500"
   height="500"
   id="svg2">
  <defs
     id="defs4" />
  <g
     transform="translate(20,20)"
     style="fill:#ffffff;fill-opacity:1"
     id="g4161">
    <path
       d="M 321.55762,40.859375 L 321.55762,62.246094 L 287.57324,62.246094 L 284.64355,106.77734 C 284.05751,114.49225 283.76454,121.18169 283.76465,126.8457 C 283.76454,140.41996 285.32704,148.72073 288.45215,151.74805 C 291.67469,154.67775 295.53211,156.1426 300.02441,156.14258 C 309.39928,156.1426 314.96568,150.2344 316.72363,138.41797 L 321.99707,138.41797 C 318.77427,165.56642 307.93444,179.14062 289.47754,179.14062 C 280.88368,179.14062 273.9501,176.5039 268.67676,171.23047 C 263.50089,165.95704 260.913,158.14455 260.91309,147.79297 C 260.913,140.95707 261.93839,126.50395 263.98926,104.43359 L 267.94434,62.246094 L 236.88965,62.246094 C 234.83881,97.793046 232.34858,123.76958 229.41895,140.17578 C 226.58686,156.58205 223.41304,167.17774 219.89746,171.96289 C 216.47945,176.74805 211.79196,179.14062 205.83496,179.14062 C 201.34275,179.14062 197.53416,177.82226 194.40918,175.18555 C 191.38182,172.54883 189.86815,169.08204 189.86816,164.78516 C 189.86815,160.68361 192.50487,155.06838 197.77832,147.93945 C 205.49313,137.58793 211.25485,126.84575 215.06348,115.71289 C 218.87203,104.48249 221.75288,86.660245 223.70605,62.246094 L 213.74512,62.246094 C 205.73728,62.246207 199.58494,64.052845 195.28809,67.666016 C 191.08885,71.181744 187.08495,76.259864 183.27637,82.900391 L 178.00293,82.900391 C 180.83496,72.451274 184.49706,63.857533 188.98926,57.119141 C 193.48143,50.380984 198.07127,45.986457 202.75879,43.935547 C 207.54391,41.884899 215.99117,40.859509 228.10059,40.859375 L 321.55762,40.859375"
       style="font-size:300px;font-style:normal;font-weight:normal;fill:#ffffff;fill-opacity:1;stroke:none;stroke-width:1px;stroke-linecap:butt;stroke-linejoin:miter;stroke-opacity:1;font-family:Times New Roman"
       id="path4163" />
    <path
       d="M 148.64865,203.1597 L 351.35135,203.1597 L 351.35135,227.72972 L 148.64865,227.72972 L 148.64865,203.1597 z "
       style="fill:#ffffff;fill-opacity:1;stroke:none;stroke-width:17.70199966;stroke-miterlimit:4;stroke-dashoffset:0;stroke-opacity:1"
       id="path4165" />
    <path
       d="M 317.45605,382.79712 L 317.45605,403.5979 L 290.7959,403.5979 L 290.7959,456.03931 L 266.62598,456.03931 L 266.62598,403.5979 L 182.54395,403.5979 L 182.54395,384.8479 L 274.68262,253.30493 L 290.7959,253.30493 L 290.7959,382.79712 L 317.45605,382.79712 M 266.62598,382.79712 L 266.62598,284.21313 L 196.89941,382.79712 L 266.62598,382.79712"
       style="font-size:300px;font-style:normal;font-weight:normal;fill:#ffffff;fill-opacity:1;stroke:none;stroke-width:1px;stroke-linecap:butt;stroke-linejoin:miter;stroke-opacity:1;font-family:Times New Roman"
       id="path4167" />
  </g>
  <g
     id="g4156">
    <path
       d="M 321.55762,40.859375 L 321.55762,62.246094 L 287.57324,62.246094 L 284.64355,106.77734 C 284.05751,114.49225 283.76454,121.18169 283.76465,126.8457 C 283.76454,140.41996 285.32704,148.72073 288.45215,151.74805 C 291.67469,154.67775 295.53211,156.1426 300.02441,156.14258 C 309.39928,156.1426 314.96568,150.2344 316.72363,138.41797 L 321.99707,138.41797 C 318.77427,165.56642 307.93444,179.14062 289.47754,179.14062 C 280.88368,179.14062 273.9501,176.5039 268.67676,171.23047 C 263.50089,165.95704 260.913,158.14455 260.91309,147.79297 C 260.913,140.95707 261.93839,126.50395 263.98926,104.43359 L 267.94434,62.246094 L 236.88965,62.246094 C 234.83881,97.793046 232.34858,123.76958 229.41895,140.17578 C 226.58686,156.58205 223.41304,167.17774 219.89746,171.96289 C 216.47945,176.74805 211.79196,179.14062 205.83496,179.14062 C 201.34275,179.14062 197.53416,177.82226 194.40918,175.18555 C 191.38182,172.54883 189.86815,169.08204 189.86816,164.78516 C 189.86815,160.68361 192.50487,155.06838 197.77832,147.93945 C 205.49313,137.58793 211.25485,126.84575 215.06348,115.71289 C 218.87203,104.48249 221.75288,86.660245 223.70605,62.246094 L 213.74512,62.246094 C 205.73728,62.246207 199.58494,64.052845 195.28809,67.666016 C 191.08885,71.181744 187.08495,76.259864 183.27637,82.900391 L 178.00293,82.900391 C 180.83496,72.451274 184.49706,63.857533 188.98926,57.119141 C 193.48143,50.380984 198.07127,45.986457 202.75879,43.935547 C 207.54391,41.884899 215.99117,40.859509 228.10059,40.859375 L 321.55762,40.859375"
       style="font-size:300px;font-style:normal;font-weight:normal;fill:#000000;fill-opacity:1;stroke:none;stroke-width:1px;stroke-linecap:butt;stroke-linejoin:miter;stroke-opacity:1;font-family:Times New Roman"
       id="text2159" />
    <path
       d="M 148.64865,203.1597 L 351.35135,203.1597 L 351.35135,227.72972 L 148.64865,227.72972 L 148.64865,203.1597 z "
       style="fill:#000000;fill-opacity:1;stroke:none;stroke-width:17.70199966;stroke-miterlimit:4;stroke-dashoffset:0;stroke-opacity:1"
       id="rect2169" />
    <path
       d="M 317.45605,382.79712 L 317.45605,403.5979 L 290.7959,403.5979 L 290.7959,456.03931 L 266.62598,456.03931 L 266.62598,403.5979 L 182.54395,403.5979 L 182.54395,384.8479 L 274.68262,253.30493 L 290.7959,253.30493 L 290.7959,382.79712 L 317.45605,382.79712 M 266.62598,382.79712 L 266.62598,284.21313 L 196.89941,382.79712 L 266.62598,382.79712"
       style="font-size:300px;font-style:normal;font-weight:normal;fill:#000000;fill-opacity:1;stroke:none;stroke-width:1px;stroke-linecap:butt;stroke-linejoin:miter;stroke-opacity:1;font-family:Times New Roman"
       id="text4146" />
  </g>
</svg>
